<?xml version="1.0" encoding="UTF-8" standalone="no"?>
<!-- Created with Inkscape (http://www.inkscape.org/) -->

<svg
   xmlns:dc="http://purl.org/dc/elements/1.1/"
   xmlns:cc="http://creativecommons.org/ns#"
   xmlns:rdf="http://www.w3.org/1999/02/22-rdf-syntax-ns#"
   xmlns:svg="http://www.w3.org/2000/svg"
   xmlns="http://www.w3.org/2000/svg"
   xmlns:xlink="http://www.w3.org/1999/xlink"
   xmlns:sodipodi="http://sodipodi.sourceforge.net/DTD/sodipodi-0.dtd"
   xmlns:inkscape="http://www.inkscape.org/namespaces/inkscape"
   width="210mm"
   height="297mm"
   id="svg2"
   version="1.1"
   inkscape:version="0.47 r22583"
   sodipodi:docname="Neues Dokument 1">
  <defs
     id="defs4">
    <linearGradient
       id="linearGradient2829">
      <stop
         style="stop-color:#34ff00;stop-opacity:1;"
         offset="0"
         id="stop2831" />
      <stop
         style="stop-color:#000000;stop-opacity:0;"
         offset="1"
         id="stop2833" />
    </linearGradient>
    <inkscape:perspective
       sodipodi:type="inkscape:persp3d"
       inkscape:vp_x="0 : 526.18109 : 1"
       inkscape:vp_y="0 : 1000 : 0"
       inkscape:vp_z="744.09448 : 526.18109 : 1"
       inkscape:persp3d-origin="372.04724 : 350.78739 : 1"
       id="perspective10" />
    <linearGradient
       inkscape:collect="always"
       xlink:href="#linearGradient2829"
       id="linearGradient2835"
       x1="99.763664"
       y1="113.86807"
       x2="240.08873"
       y2="227.6315"
       gradientUnits="userSpaceOnUse"
       gradientTransform="matrix(1.8461988,0,0,1.5727033,-84.419895,-65.212616)" />
  </defs>
  <sodipodi:namedview
     id="base"
     pagecolor="#ffffff"
     bordercolor="#666666"
     borderopacity="1.0"
     inkscape:pageopacity="0.0"
     inkscape:pageshadow="2"
     inkscape:zoom="1.2596618"
     inkscape:cx="371.42857"
     inkscape:cy="819.18121"
     inkscape:document-units="px"
     inkscape:current-layer="text2820"
     showgrid="false"
     inkscape:window-width="1436"
     inkscape:window-height="993"
     inkscape:window-x="4"
     inkscape:window-y="22"
     inkscape:window-maximized="0" />
  <metadata
     id="metadata7">
    <rdf:RDF>
      <cc:Work
         rdf:about="">
        <dc:format>image/svg+xml</dc:format>
        <dc:type
           rdf:resource="http://purl.org/dc/dcmitype/StillImage" />
        <dc:title></dc:title>
      </cc:Work>
    </rdf:RDF>
  </metadata>
  <g
     inkscape:label="Ebene 1"
     inkscape:groupmode="layer"
     id="layer1">
    <text
       xml:space="preserve"
       style="font-size:144px;font-style:normal;font-weight:normal;fill:#000000;fill-opacity:1;stroke:none;font-family:Bitstream Vera Sans"
       x="64.302971"
       y="65.589409"
       id="text2816"><tspan
         sodipodi:role="line"
         id="tspan2818"
         x="64.302971"
         y="65.589409" /></text>
    <g
       transform="scale(1.0252582,0.97536405)"
       style="font-size:242.10493469px;font-style:normal;font-weight:normal;fill:#000000;fill-opacity:1;stroke:none;font-family:Bitstream Vera Sans"
       id="text2820">
      <path
         d="m 321.0681,118.51602 c -1.30975,3.59459 -5.82021,13.69611 -13.53144,30.30456 l -37.32057,78.45723 c 13.09472,43.13291 25.02565,71.45434 35.79283,84.96433 l -34.91984,0 c -5.82016,-7.06486 -12.51313,-22.43403 -20.07889,-46.10757 -17.16909,34.08492 -42.19495,51.12734 -75.07765,51.12734 -22.55246,0 -40.88536,-8.30431 -54.99872,-24.91295 -14.11347,-16.73254 -21.170188,-38.67079 -21.170157,-65.81482 -3.1e-5,-33.21716 8.366177,-60.29912 25.098627,-81.24599 16.87785,-20.94652 38.62997,-31.41988 65.25644,-31.42008 17.02329,2e-4 30.91844,5.94957 41.68555,17.84809 10.76677,11.77496 19.78772,30.42866 27.06287,55.9612 16.44122,-37.67914 26.18964,-60.73289 29.24536,-69.16134 l 32.95559,0 m -81.84336,110.24913 c -7.71163,-28.63121 -12.94959,-47.09899 -15.71392,-55.40345 -2.61915,-8.30417 -7.05687,-16.1127 -13.3132,-23.42562 -6.2566,-7.31258 -14.40454,-10.96896 -24.44387,-10.96913 -13.09504,1.7e-4 -24.73497,8.24251 -34.91984,24.72703 -10.18502,16.36088 -15.27748,36.06813 -15.27742,59.1218 -6e-5,19.83129 4.07391,36.31596 12.22194,49.45408 8.14787,13.13821 18.98757,19.70728 32.5191,19.70726 20.66075,2e-5 40.30315,-21.07062 58.92721,-63.21197"
         style="font-variant:normal;font-stretch:normal;fill:url(#linearGradient2835);fill-opacity:1;font-family:Sans;-inkscape-font-specification:Helvetica"
         id="path2827"
         inkscape:export-filename="/Users/ol/Desktop/alpha.png"
         inkscape:export-xdpi="119"
         inkscape:export-ydpi="119" />
    </g>
  </g>
</svg>
