<?xml version="1.0" encoding="UTF-8" standalone="no"?>
<!-- Created with Inkscape (http://www.inkscape.org/) -->

<svg
   xmlns:dc="http://purl.org/dc/elements/1.1/"
   xmlns:cc="http://creativecommons.org/ns#"
   xmlns:rdf="http://www.w3.org/1999/02/22-rdf-syntax-ns#"
   xmlns:svg="http://www.w3.org/2000/svg"
   xmlns="http://www.w3.org/2000/svg"
   xmlns:sodipodi="http://sodipodi.sourceforge.net/DTD/sodipodi-0.dtd"
   xmlns:inkscape="http://www.inkscape.org/namespaces/inkscape"
   width="467.92557"
   height="235.24924"
   id="svg2"
   version="1.1"
   inkscape:version="0.47 r22583"
   sodipodi:docname="paper_plane.svg"
   inkscape:export-filename="/Users/ol/Desktop/paper_plane2.png"
   inkscape:export-xdpi="119"
   inkscape:export-ydpi="119">
  <defs
     id="defs4">
    <inkscape:path-effect
       effect="skeletal"
       id="path-effect2866"
       is_visible="true"
       pattern="M 0,5 C 0,2.24 2.24,0 5,0 7.76,0 10,2.24 10,5 10,7.76 7.76,10 5,10 2.24,10 0,7.76 0,5 z"
       copytype="single_stretched"
       prop_scale="1"
       scale_y_rel="false"
       spacing="0"
       normal_offset="0"
       tang_offset="0"
       prop_units="false"
       vertical_pattern="false"
       fuse_tolerance="0" />
    <inkscape:path-effect
       effect="skeletal"
       id="path-effect2862"
       is_visible="true"
       pattern="M 0,5 C 0,2.24 2.24,0 5,0 7.76,0 10,2.24 10,5 10,7.76 7.76,10 5,10 2.24,10 0,7.76 0,5 z"
       copytype="single_stretched"
       prop_scale="1"
       scale_y_rel="false"
       spacing="0"
       normal_offset="0"
       tang_offset="0"
       prop_units="false"
       vertical_pattern="false"
       fuse_tolerance="0" />
    <inkscape:path-effect
       effect="skeletal"
       id="path-effect2858"
       is_visible="true"
       pattern="M 0,5 C 0,2.24 2.24,0 5,0 7.76,0 10,2.24 10,5 10,7.76 7.76,10 5,10 2.24,10 0,7.76 0,5 z"
       copytype="single_stretched"
       prop_scale="1"
       scale_y_rel="false"
       spacing="0"
       normal_offset="0"
       tang_offset="0"
       prop_units="false"
       vertical_pattern="false"
       fuse_tolerance="0" />
    <inkscape:path-effect
       effect="skeletal"
       id="path-effect2854"
       is_visible="true"
       pattern="M 0,5 C 0,2.24 2.24,0 5,0 7.76,0 10,2.24 10,5 10,7.76 7.76,10 5,10 2.24,10 0,7.76 0,5 z"
       copytype="single_stretched"
       prop_scale="1"
       scale_y_rel="false"
       spacing="0"
       normal_offset="0"
       tang_offset="0"
       prop_units="false"
       vertical_pattern="false"
       fuse_tolerance="0" />
    <inkscape:path-effect
       effect="skeletal"
       id="path-effect2822"
       is_visible="true"
       pattern="M 0,5 C 0,2.24 2.24,0 5,0 7.76,0 10,2.24 10,5 10,7.76 7.76,10 5,10 2.24,10 0,7.76 0,5 z"
       copytype="single_stretched"
       prop_scale="1"
       scale_y_rel="false"
       spacing="0"
       normal_offset="0"
       tang_offset="0"
       prop_units="false"
       vertical_pattern="false"
       fuse_tolerance="0" />
    <inkscape:path-effect
       effect="skeletal"
       id="path-effect2818"
       is_visible="true"
       pattern="M 0,5 C 0,2.24 2.24,0 5,0 7.76,0 10,2.24 10,5 10,7.76 7.76,10 5,10 2.24,10 0,7.76 0,5 z"
       copytype="single_stretched"
       prop_scale="1"
       scale_y_rel="false"
       spacing="0"
       normal_offset="0"
       tang_offset="0"
       prop_units="false"
       vertical_pattern="false"
       fuse_tolerance="0" />
    <inkscape:perspective
       sodipodi:type="inkscape:persp3d"
       inkscape:vp_x="0 : 526.18109 : 1"
       inkscape:vp_y="0 : 1000 : 0"
       inkscape:vp_z="744.09448 : 526.18109 : 1"
       inkscape:persp3d-origin="372.04724 : 350.78739 : 1"
       id="perspective10" />
  </defs>
  <sodipodi:namedview
     id="base"
     pagecolor="#ffffff"
     bordercolor="#666666"
     borderopacity="1.0"
     inkscape:pageopacity="0.0"
     inkscape:pageshadow="2"
     inkscape:zoom="1"
     inkscape:cx="171.64493"
     inkscape:cy="150.85191"
     inkscape:document-units="px"
     inkscape:current-layer="layer1"
     showgrid="false"
     inkscape:window-width="1916"
     inkscape:window-height="1036"
     inkscape:window-x="4"
     inkscape:window-y="22"
     inkscape:window-maximized="0"
     showborder="false"
     inkscape:showpageshadow="false" />
  <metadata
     id="metadata7">
    <rdf:RDF>
      <cc:Work
         rdf:about="">
        <dc:format>image/svg+xml</dc:format>
        <dc:type
           rdf:resource="http://purl.org/dc/dcmitype/StillImage" />
        <dc:title />
      </cc:Work>
    </rdf:RDF>
  </metadata>
  <g
     inkscape:label="Calque 1"
     inkscape:groupmode="layer"
     id="layer1"
     transform="translate(-69.229882,-475.12283)">
    <g
       id="g2830">
      <path
         inkscape:original-d="M 537.14286,475.21933 228.57143,706.6479 151.42857,629.50504 537.14286,475.21933 z"
         inkscape:path-effect="#path-effect2818"
         id="path2816"
         d="m 537.14286,475.21933 c 0.37512,0.50015 -7.63919,7.25588 -22.67662,19.15386 -15.03742,11.89798 -37.09856,28.93817 -64.76482,50.01096 -27.66626,21.0728 -60.93773,46.17819 -98.3383,74.21068 -37.40057,28.03248 -78.92984,58.99208 -123.05633,91.77722 -1e-5,1e-5 -2e-5,1e-5 -3e-5,2e-5 -16.5024,-16.85973 -33.41462,-34.16267 -50.6245,-51.7819 -9.75353,-9.98554 -19.40692,-19.87218 -28.93981,-29.63648 2e-5,0 3e-5,-1e-5 4e-5,-1e-5 54.15226,-22.16639 105.46254,-43.106 151.96877,-61.94212 46.50623,-18.83611 88.20827,-35.56806 123.15953,-49.39456 34.95126,-13.8265 63.15175,-24.74762 82.67125,-32.04185 19.51951,-7.29422 30.3582,-10.96237 30.60082,-10.35582 0.24262,0.60655 -10.13028,5.42304 -29.17884,13.55604 -19.04856,8.133 -46.7726,19.58168 -81.24722,33.52553 -34.47461,13.94386 -75.69979,30.38279 -121.767,48.57605 -46.06721,18.19326 -96.97659,38.14151 -150.83508,59.17942 -1e-5,10e-6 -2e-5,10e-6 -3e-5,2e-5 8.96612,8.73471 18.0348,17.57013 27.19298,26.49632 16.15941,15.75004 32.02597,31.22589 47.52843,46.37102 1e-5,-10e-6 2e-5,-10e-6 3e-5,-2e-5 43.20253,-32.71163 83.9092,-63.42899 120.73996,-91.07 36.83076,-27.64101 69.78601,-52.20566 97.43034,-72.6158 27.64434,-20.41015 49.97767,-36.66581 65.50706,-47.69295 15.52939,-11.02713 24.25425,-16.82578 24.62937,-16.32563 z"
         style="fill:#000000;fill-rule:evenodd;stroke:none" />
      <path
         inkscape:original-d="m 535.71429,475.21932 -413.57143,107.85715 -50.714288,-65 464.285718,-42.85715 z"
         inkscape:path-effect="#path-effect2822"
         id="path2820"
         d="m 535.71429,475.21932 c 0.16084,0.61674 -10.9724,4.14833 -31.46707,10.03119 -20.49467,5.88286 -50.35127,14.1168 -87.59348,24.15303 -37.2422,10.03622 -81.87009,21.87469 -131.85943,34.98283 -49.98934,13.10814 -105.33977,27.48606 -163.9813,42.61668 -1e-5,10e-6 -2e-5,10e-6 -3e-5,10e-6 C 108.36625,570.16799 95.6882,552.99137 82.830443,535.56302 78.27229,529.38456 73.738009,523.23748 69.229882,517.12583 197.28384,504.94681 312.73762,494.1298 396.68519,486.58052 c 83.94757,-7.54928 136.38929,-11.83112 139.02441,-11.41206 0.005,0.0508 0.005,0.0509 0.005,0.0509 0,0 10e-6,9e-5 0.005,0.0509 -2.5134,0.89431 -54.72662,6.27293 -137.89082,14.14935 -83.16421,7.87642 -197.27903,18.25037 -324.200898,29.60758 4.360615,5.25533 8.744835,10.539 13.150856,15.84984 12.428619,14.98095 24.673522,29.74782 36.694622,44.27293 2e-5,-1e-5 3e-5,-1e-5 4e-5,-1e-5 57.87304,-15.25574 112.47632,-29.55314 161.87809,-42.36565 49.40178,-12.81252 93.60242,-24.14004 130.62442,-33.47151 37.022,-9.33147 66.86529,-16.66693 87.50445,-21.51155 20.63917,-4.84462 32.07371,-7.19858 32.23455,-6.58184 z"
         style="fill:#000000;fill-rule:evenodd;stroke:none" />
      <path
         inkscape:original-d="M 124.28571,580.93361 95,690.21933 150.71429,630.93361"
         inkscape:path-effect="#path-effect2854"
         id="path2852"
         d="m 124.28571,580.93361 c 0.66648,0.1786 0.59133,2.97594 -0.21125,7.82719 -0.80258,4.85125 -2.33343,11.75594 -4.50398,20.19065 -2.17054,8.43471 -4.98079,18.39945 -8.26148,29.4157 -3.28068,11.01626 -7.03097,23.08452 -11.00724,35.76769 -1.603425,5.11445 -3.181669,10.13518 -4.71664,15.03372 2e-6,0 4e-6,0 5e-6,0 7.293585,-8.71317 14.183675,-16.86535 20.506625,-24.13127 6.32295,-7.26593 12.07924,-13.64534 17.03452,-18.85233 4.95527,-5.20699 9.10939,-9.24164 12.15474,-11.85885 3.04534,-2.6172 4.98116,-3.81739 5.43328,-3.3925 0.45212,0.42489 -0.62749,2.43343 -3.0925,5.67981 -2.46501,3.24637 -6.31617,7.73017 -11.34061,13.14261 -5.02444,5.41245 -11.22229,11.75347 -18.30741,18.75511 -7.08512,7.00164 -15.05703,14.66415 -23.558885,22.75895 -2e-6,0 -4e-6,10e-6 -5e-6,10e-6 1.14242,-5.09271 2.312523,-10.328 3.51066,-15.66814 2.97122,-13.24284 5.84118,-25.87943 8.58291,-37.33707 2.74173,-11.45764 5.35606,-21.73585 7.74166,-30.30334 2.38559,-8.56748 4.54245,-15.42424 6.28854,-20.08389 1.74609,-4.65964 3.08058,-7.12265 3.74706,-6.94405 z"
         style="fill:#000000;fill-rule:evenodd;stroke:none" />
      <path
         id="path2864"
         d="m 94.843153,690.68443 c -0.599126,-0.93389 17.858327,-9.5921 41.199687,-19.32637 23.34134,-9.73424 42.7713,-16.87656 43.37042,-15.94268 0.59913,0.9339 -17.85833,9.59212 -41.19968,19.32637 -23.34134,9.73425 -42.771301,16.87658 -43.370427,15.94268 z"
         style="fill:#000000;fill-rule:evenodd;stroke:none" />
      <path
         transform="translate(69.229882,475.12283)"
         id="path2824"
         d="M 38.364268,84.330156 C 29.647396,73.824355 18.673563,60.598028 13.977973,54.938314 9.2823831,49.278602 5.4406252,44.519269 5.4407335,44.362017 5.4408418,44.204765 42.944581,40.697978 88.782374,36.569158 237.71658,23.153972 402.78519,7.6531434 438.91606,3.6897265 c 5.42083,-0.5946441 10.1774,-1.0623384 10.57016,-1.0393207 0.39276,0.023018 -2.9448,0.8883369 -7.41679,1.9229315 C 392.70015,15.994915 282.81907,43.906136 137.04648,82.053126 92.114522,93.811296 55.095763,103.43162 54.782569,103.43162 c -0.313194,0 -7.701429,-8.595658 -16.418301,-19.101464 z"
         style="fill:#f2f2f2;fill-opacity:1;stroke:#000000;stroke-width:1.46356058000000000;stroke-miterlimit:4;stroke-opacity:1;stroke-dasharray:none" />
      <path
         transform="translate(69.229882,475.12283)"
         id="path2826"
         d="m 27.664975,211.39984 c 0,-0.36327 0.838358,-3.2782 1.863019,-6.47761 12.248057,-38.24352 22.46903,-74.35444 25.06335,-88.54937 l 0.953615,-5.21774 76.719451,-19.927724 C 248.61654,61.005164 363.80362,30.388944 412.97635,16.615393 c 11.72514,-3.284277 21.42192,-5.867932 21.5484,-5.741456 0.12648,0.126476 -6.05185,2.622132 -13.72961,5.545902 -45.06468,17.161086 -142.53211,56.121217 -258.69942,103.408531 -45.46524,18.50718 -82.759808,33.72573 -82.876826,33.81899 -0.117017,0.0933 0.104769,0.55218 0.492857,1.0198 0.597323,0.71973 0.50519,0.99037 -0.600331,1.76347 -6.918325,4.83803 -22.011439,20.79131 -41.399215,43.7586 -5.033359,5.96265 -9.353087,11.07292 -9.599396,11.35615 -0.272464,0.3133 -0.447834,0.2563 -0.447834,-0.14554 z"
         style="fill:#cccccc;fill-opacity:1;stroke:#000000;stroke-width:1.46356058000000000;stroke-miterlimit:4;stroke-opacity:1;stroke-dasharray:none" />
      <path
         transform="translate(69.229882,475.12283)"
         id="path2828"
         d="m 122.8582,191.50539 c -20.23905,-19.73666 -36.778947,-36.07616 -36.755339,-36.31 0.02361,-0.23384 35.609109,-14.38731 79.078899,-31.45215 C 310.68588,66.622992 414.46539,24.838187 449.06475,9.4432729 c 4.44369,-1.9772109 8.15591,-3.5184546 8.24938,-3.4249861 0.0935,0.093469 -3.07212,2.4103977 -7.03464,5.1487312 C 417.42849,33.868982 304.82512,117.57418 173.75,216.72885 l -14.09355,10.66138 -36.79825,-35.88484 z"
         style="fill:#ffffff;fill-opacity:1;stroke:#000000;stroke-width:1.46356058000000000;stroke-miterlimit:4;stroke-opacity:1;stroke-dasharray:none" />
    </g>
  </g>
</svg>
