<?xml version="1.0" encoding="UTF-8" standalone="no"?>
<!-- Created with Inkscape (http://www.inkscape.org/) -->

<svg
   xmlns:dc="http://purl.org/dc/elements/1.1/"
   xmlns:cc="http://creativecommons.org/ns#"
   xmlns:rdf="http://www.w3.org/1999/02/22-rdf-syntax-ns#"
   xmlns:svg="http://www.w3.org/2000/svg"
   xmlns="http://www.w3.org/2000/svg"
   xmlns:sodipodi="http://sodipodi.sourceforge.net/DTD/sodipodi-0.dtd"
   xmlns:inkscape="http://www.inkscape.org/namespaces/inkscape"
   width="210mm"
   height="297mm"
   id="svg2"
   version="1.1"
   inkscape:version="0.47 r22583"
   sodipodi:docname="support-icon.svg">
  <defs
     id="defs4">
    <inkscape:perspective
       sodipodi:type="inkscape:persp3d"
       inkscape:vp_x="0 : 526.18109 : 1"
       inkscape:vp_y="0 : 1000 : 0"
       inkscape:vp_z="744.09448 : 526.18109 : 1"
       inkscape:persp3d-origin="372.04724 : 350.78739 : 1"
       id="perspective10" />
    <inkscape:perspective
       id="perspective2884"
       inkscape:persp3d-origin="0.5 : 0.33333333 : 1"
       inkscape:vp_z="1 : 0.5 : 1"
       inkscape:vp_y="0 : 1000 : 0"
       inkscape:vp_x="0 : 0.5 : 1"
       sodipodi:type="inkscape:persp3d" />
  </defs>
  <sodipodi:namedview
     id="base"
     pagecolor="#ffffff"
     bordercolor="#666666"
     borderopacity="1.0"
     inkscape:pageopacity="0.0"
     inkscape:pageshadow="2"
     inkscape:zoom="5.0512995"
     inkscape:cx="98.32677"
     inkscape:cy="980.46025"
     inkscape:document-units="px"
     inkscape:current-layer="layer1"
     showgrid="false"
     inkscape:window-width="1545"
     inkscape:window-height="1040"
     inkscape:window-x="4"
     inkscape:window-y="22"
     inkscape:window-maximized="0" />
  <metadata
     id="metadata7">
    <rdf:RDF>
      <cc:Work
         rdf:about="">
        <dc:format>image/svg+xml</dc:format>
        <dc:type
           rdf:resource="http://purl.org/dc/dcmitype/StillImage" />
        <dc:title></dc:title>
      </cc:Work>
    </rdf:RDF>
  </metadata>
  <g
     inkscape:label="Ebene 1"
     inkscape:groupmode="layer"
     id="layer1">
    <g
       id="g3349">
      <path
         id="path3296"
         d="m 54.529842,125.1396 c -2.32368,-1.76541 -3.9808,-6.43602 -3.19984,-9.01878 0.35222,-1.16486 1.50414,-3.06338 2.55982,-4.21894 1.91708,-2.09846 1.91393,-2.10312 -2.5865,-3.82185 -5.92212,-2.26168 -9.5664,-6.61297 -9.55092,-11.40386 0.0484,-14.97525 14.39618,-38.84674 24.31378,-40.45262 11.03653,-1.78707 16.87409,6.58035 11.68779,16.75299 l -1.98656,3.89652 2.42892,4.14464 c 2.9961,5.11246 4.13106,6.03026 8.47858,6.85636 4.01439,0.7628 7.06562,3.21361 7.06562,5.67525 0,1.09963 1.50439,2.33837 4.10219,3.3778 2.256208,0.90276 4.322008,2.48196 4.590678,3.50934 0.5126,1.96017 4.96919,3.42225 5.89001,1.93234 0.85446,-1.38255 5.24212,-1.00449 8.71678,0.75108 5.11587,2.5848 7.70034,5.4641 7.70034,8.57878 0,4.20333 -3.51599,5.5284 -10.68132,4.02545 -6.20088,-1.30065 -8.31868,-2.63136 -8.31868,-5.22701 0,-2.15594 -3.64014,-3.25715 -6.213768,-1.87979 -1.35983,0.72776 -3.2763,0.55141 -6.82811,-0.62831 l -4.93769,-1.64004 -12.02606,10.07698 c -10.59187,8.87523 -12.47137,10.07318 -15.76021,10.04517 -2.05379,-0.0175 -4.50397,-0.61667 -5.44485,-1.3315 z"
         style="fill:#000000" />
      <path
         id="path3294"
         d="m 62.056272,123.33551 c 2.70361,-1.44496 21.05972,-16.76889 21.51759,-17.96317 0.18333,-0.47819 -0.0908,-0.86944 -0.60921,-0.86944 -0.5184,0 -3.05045,-1.85545 -5.62677,-4.12323 -2.57633,-2.26777 -4.96469,-3.84277 -5.30746,-3.5 -0.34278,0.34278 9.7e-4,0.62323 0.76389,0.62323 0.76291,0 -1.63709,2.10528 -5.33333,4.67839 -3.69625,2.57312 -6.72045,5.22812 -6.72045,5.9 0,0.67189 -1.575,2.79661 -3.5,4.72161 -4.18049,4.18049 -4.41877,6.83213 -0.86514,9.62742 3.09088,2.43129 2.88641,2.39871 5.68088,0.90519 z"
         style="fill:#4d4d4d" />
      <path
         id="path3292"
         d="m 121.63665,112.58826 c 1.12876,-0.71472 0.91759,-1.36255 -1.10268,-3.38283 -1.37435,-1.37435 -3.87598,-3.21097 -5.55917,-4.08138 -2.8485,-1.47302 -3.21963,-1.45359 -5.36135,0.28067 -2.00466,1.62327 -2.15192,2.19043 -1.14347,4.40375 0.63665,1.39729 2.19547,2.73887 3.46404,2.98129 4.12417,0.78813 8.27588,0.70191 9.70263,-0.2015 z"
         style="fill:#b3b3b3" />
      <path
         id="path3290"
         d="m 66.098022,102.14549 c 3.91751,-2.69809 5.33656,-4.29667 5.25468,-5.91944 -0.0878,-1.74043 -0.80687,-2.29037 -3.31155,-2.53273 -3.0598,-0.29608 -3.19497,-0.49239 -3.09834,-4.5 0.0556,-2.30473 -0.86721,-6.84777 -2.05062,-10.09565 -2.74079,-7.52208 -2.77754,-12.54584 -0.11271,-15.40621 3.82138,-4.10176 11.96105,-1.54818 11.96105,3.75242 0,1.06754 0.45,2.2191 1,2.55902 1.68376,1.04062 1.15769,-7.19945 -0.56993,-8.92707 -5.02382,-5.02382 -12.07845,-2.4688 -19.16732,6.94196 -6.36119,8.44475 -10.3533,17.94578 -10.91833,25.98511 -0.48038,6.83492 0.47595,8.65407 5.75475,10.94677 4.95353,2.15143 9.19472,1.37198 15.25832,-2.80418 z"
         style="fill:#333333" />
      <path
         id="path3288"
         d="m 59.740532,105.15668 c 0,-0.67642 10.13322,-7.8539 10.52918,-7.45794 0.18329,0.1833 -2.11079,2.04121 -5.09796,4.12869 -2.98717,2.08749 -5.43122,3.58565 -5.43122,3.32925 z"
         style="fill:#000000" />
      <path
         id="path3286"
         d="m 99.540532,105.3029 c 2.262628,-2.26263 1.193958,-3.91275 -4.05,-6.25356 -2.8875,-1.28893 -6.98647,-3.53383 -9.10882,-4.98868 -3.45124,-2.36579 -4.08498,-2.49853 -6,-1.2568 -3.34757,2.17061 -5.14093,0.87998 -2.10047,-1.51165 2.56766,-2.01971 2.57104,-2.04177 0.63729,-4.1599 -2.88016,-3.15477 -5.34559,-8.38138 -7.13664,-15.12941 -1.40346,-5.28774 -1.88625,-6 -4.06694,-6 -2.31897,0 -2.46673,0.31412 -2.35197,5 0.25671,10.48182 8.28446,22.59991 19.87755,30.00567 7.78093,4.97052 12.2744,6.31992 14.3,4.29433 z"
         style="fill:#666666" />
      <path
         id="path3284"
         d="m 81.171242,90.60028 c -0.26308,-0.26308 -1.25512,0.33267 -2.20452,1.3239 -1.64929,1.72194 -1.62798,1.74325 0.47833,0.47833 1.21248,-0.72815 1.98927,-1.53915 1.72619,-1.80223 z"
         style="fill:#000000" />
      <path
         id="path3282"
         d="m 117.05305,124.87494 c -0.69372,-1.80781 2.26908,-4.5853 7.19948,-6.74918 2.55578,-1.1217 3.18877,-2.16467 4.17903,-6.88577 1.61292,-7.68962 0.92625,-9.73709 -3.26556,-9.73709 -2.50823,0 -4.34902,-0.95866 -7.38337,-3.84516 -2.22316,-2.11484 -4.0421,-4.78218 -4.0421,-5.92742 0,-1.14524 -1.17606,-3.00734 -2.61346,-4.138 -1.68395,-1.3246 -2.3937,-2.62838 -1.9956,-3.66581 0.51036,-1.33 1.53034,-1.48621 5.86345,-0.89802 10.58389,1.4367 15.66041,5.02817 15.81589,11.18923 0.0387,1.53185 0.4371,3.68518 0.88542,4.78518 0.73336,1.79936 0.88995,1.69905 1.56095,-1 1.54852,-6.22878 7.08327,-9.48229 16.15156,-9.49442 2.29252,-0.003 4.88002,0.26756 5.75,0.60141 2.19877,0.84375 1.97902,3.13216 -0.37245,3.87849 -1.07483,0.34113 -2.98733,2.4642 -4.25,4.71793 -2.72425,4.86249 -7.98468,8.03393 -12.52116,7.54883 -3.02404,-0.32336 -3.32058,-0.0656 -4.75,4.12957 -2.08823,6.12862 -1.92815,7.80009 0.81291,8.48805 3.50171,0.87888 7.66249,4.51849 7.66249,6.70272 0,1.79643 -0.81769,1.92742 -12.03139,1.92742 -10.19237,0 -12.12687,-0.24884 -12.65609,-1.62796 z"
         style="fill:#008000" />
      <path
         id="path3280"
         d="m 136.3168,121.98382 c -3.16245,-2.39267 -7.99478,-2.83299 -11.45479,-1.04374 -1.71682,0.8878 -3.12148,1.82762 -3.12148,2.0885 0,0.26088 3.7125,0.46001 8.25,0.44252 7.43922,-0.0287 8.06094,-0.17484 6.32627,-1.48728 z"
         style="fill:#008000" />
      <path
         id="path3278"
         d="m 143.61176,100.91989 c 1.4739,-0.87065 3.72994,-3.40762 5.01341,-5.63771 l 2.3336,-4.05471 -5.19816,0.49948 c -4.00459,0.38479 -5.80914,1.14175 -7.85912,3.29668 l -2.66096,2.7972 2.88486,-2.15897 c 3.34178,-2.50091 6.61514,-2.82698 6.61514,-0.65896 0,0.825 -0.3375,1.51211 -0.75,1.5269 -0.4125,0.0148 -2.325,1.35269 -4.25,2.9731 -3.29187,2.771 -3.36051,2.9478 -1.15429,2.9731 1.29014,0.0148 3.55162,-0.68545 5.02552,-1.55611 z"
         style="fill:#00ff00" />
      <path
         id="path3276"
         d="m 126.74053,98.69907 c 0,-0.44211 -1.575,-2.33039 -3.5,-4.19617 -5.58786,-5.41596 -3.90677,-8.41764 2.11514,-3.77671 2.01695,1.55441 2.45549,1.68499 1.45769,0.43406 -1.77374,-2.22372 -5.56783,-4.20005 -9.82179,-5.11614 l -3.24896,-0.69966 1.6675,3.32922 c 0.91713,1.83108 1.97139,4.00423 2.34279,4.82923 0.71564,1.58965 6.69572,6 8.13551,6 0.46866,0 0.85212,-0.36172 0.85212,-0.80383 z"
         style="fill:#00ff00" />
      <path
         id="path3180"
         d="m 82.760462,61.75138 c -7.11586,-3.57513 -10.01732,-12.3407 -6.48686,-19.59732 2.21331,-4.5493 6.07038,-6.95579 11.89722,-7.42288 4.10202,-0.32882 5.73777,0.0439 8.56971,1.95261 9.519548,6.4162 8.940748,19.96243 -1.07109,25.06759 -1.8859,0.96164 -4.77891,1.74844 -6.42891,1.74844 -1.65,0 -4.56603,-0.7868 -6.48007,-1.74844 z"
         style="fill:#000000" />
      <path
         id="path3178"
         d="m 94.773262,58.986 c 8.773498,-4.53695 7.211518,-18.06571 -2.4536,-21.25126 -3.33837,-1.1003 -4.31788,-1.03411 -7.39891,0.5 -4.83156,2.40573 -7.59992,6.44558 -7.47348,10.90602 0.24601,8.67892 9.4584,13.91373 17.32599,9.84524 z"
         style="fill:#4d4d4d" />
    </g>
  </g>
</svg>
