<?xml version="1.0" encoding="UTF-8" standalone="no"?>
<!-- Created with Inkscape (http://www.inkscape.org/) -->

<svg
   xmlns:dc="http://purl.org/dc/elements/1.1/"
   xmlns:cc="http://creativecommons.org/ns#"
   xmlns:rdf="http://www.w3.org/1999/02/22-rdf-syntax-ns#"
   xmlns:svg="http://www.w3.org/2000/svg"
   xmlns="http://www.w3.org/2000/svg"
   xmlns:xlink="http://www.w3.org/1999/xlink"
   xmlns:sodipodi="http://sodipodi.sourceforge.net/DTD/sodipodi-0.dtd"
   xmlns:inkscape="http://www.inkscape.org/namespaces/inkscape"
   width="210mm"
   height="297mm"
   id="svg4071"
   version="1.1"
   inkscape:version="0.47 r22583"
   sodipodi:docname="Neues Dokument 11">
  <defs
     id="defs3">
    <inkscape:perspective
       sodipodi:type="inkscape:persp3d"
       inkscape:vp_x="0 : 526.18109 : 1"
       inkscape:vp_y="0 : 1000 : 0"
       inkscape:vp_z="744.09448 : 526.18109 : 1"
       inkscape:persp3d-origin="372.04724 : 350.78739 : 1"
       id="perspective4077" />
    <inkscape:perspective
       id="perspective4144"
       inkscape:persp3d-origin="0.5 : 0.33333333 : 1"
       inkscape:vp_z="1 : 0.5 : 1"
       inkscape:vp_y="0 : 1000 : 0"
       inkscape:vp_x="0 : 0.5 : 1"
       sodipodi:type="inkscape:persp3d" />
  </defs>
  <sodipodi:namedview
     inkscape:document-units="mm"
     id="base"
     pagecolor="#ffffff"
     bordercolor="#666666"
     borderopacity="1.0"
     inkscape:pageopacity="0.0"
     inkscape:pageshadow="2"
     inkscape:zoom="0.35"
     inkscape:cx="-180"
     inkscape:cy="520"
     inkscape:current-layer="layer1"
     showgrid="false"
     inkscape:window-width="1372"
     inkscape:window-height="909"
     inkscape:window-x="24"
     inkscape:window-y="42"
     inkscape:window-maximized="0" />
  <metadata
     id="metadata4">
    <rdf:RDF>
      <cc:Work
         rdf:about="">
        <dc:format>image/svg+xml</dc:format>
        <dc:type
           rdf:resource="http://purl.org/dc/dcmitype/StillImage" />
        <dc:title></dc:title>
      </cc:Work>
    </rdf:RDF>
  </metadata>
  <g
     inkscape:label="Layer 1"
     inkscape:groupmode="layer"
     id="layer1">
    <image
       y="32.362202"
       x="28.571453"
       id="image4146"
       height="411.42856"
       width="628.57141"
       xlink:href="file:///Users/ol/Desktop/unanswered-questions-25rt6eo.jpg" />
    <path
       style="fill:#800080"
       d="m 232.66691,895.57209 c -6.2626,-6.53372 -7.23541,-20.39629 -2.05913,-29.3428 6.34214,-10.9615 14.25791,-15.68324 25.08977,-14.96587 16.47592,1.09117 26.35687,12.16037 25.20831,28.23976 -0.43078,6.0307 -5.92234,16.45639 -10.95102,20.79045 -7.64649,6.59025 -19.47624,6.88764 -29.7623,0.74819 -2.9343,-1.75139 -6.32083,-4.21277 -7.52563,-5.46973 z m -87.06666,-72.17395 c -7.79338,-13.95276 4.60391,-33.72669 19.61271,-31.28267 15.36223,2.50157 17.20207,26.75431 2.74037,36.12335 -7.23674,4.68834 -18.37827,2.27559 -22.35308,-4.84068 z m 199.43254,102.64869 c -6.87582,-11.09168 5.83101,-30.50999 19.5486,-29.87373 4.94772,0.22948 12.36302,4.87766 13.89724,8.71129 4.51266,11.27592 -6.36845,28.59919 -18.44167,29.36007 -5.17657,0.32623 -12.04717,-3.42756 -15.00417,-8.19763 z M 164.96225,770.91952 c -2.25881,-3.74245 -3.48747,-9.36564 -3.2729,-14.97899 0.18122,-4.74077 0.85894,-6.76258 4.21593,-12.57704 4.94597,-8.56668 8.08678,-10.71344 26.55834,-18.15286 15.71321,-6.32849 23.13825,-11.05036 27.82003,-17.69182 5.90238,-8.37299 4.97691,-15.91173 -2.48204,-20.21816 -5.60762,-3.23756 -9.83463,-2.77031 -20.30489,2.24446 -12.89322,6.17524 -18.13186,5.89794 -21.9863,-1.16388 -0.96729,-1.7722 -2.02641,-5.30198 -2.35358,-7.84399 -2.18482,-16.97501 26.39508,-35.68531 49.36849,-32.31989 4.67789,0.68527 7.68835,1.90704 14.96802,6.07462 13.58911,7.77975 20.03772,16.13289 22.01139,28.5124 4.30908,27.02807 -13.29207,53.16566 -43.52947,64.64098 -12.96319,4.91962 -16.94182,7.96311 -23.84283,18.23887 -6.51242,9.69713 -9.4854,11.88891 -15.47114,11.40582 -4.41569,-0.35638 -9.95242,-3.27666 -11.69905,-6.17052 z m 105.11423,57.3053 c -6.1516,-5.31317 -9.19501,-13.9049 -8.58339,-24.23149 0.91843,-15.50689 8.40959,-25.86755 23.15733,-32.02774 3.05198,-1.27482 13.77126,-3.80856 23.82063,-5.63053 31.57723,-5.72502 43.88573,-10.65817 51.25391,-20.54217 8.01379,-10.75007 5.34895,-21.8805 -6.95246,-29.03882 -7.78492,-4.53007 -12.83658,-4.61674 -29.74819,-0.51015 -7.82007,1.89893 -16.02132,3.30707 -18.22497,3.12922 -8.5919,-0.69343 -14.79829,-6.94295 -16.9731,-17.09106 -3.38747,-15.80663 5.73929,-27.56575 27.50721,-35.44092 21.34709,-7.72292 41.08326,-6.82394 61.05627,2.7811 8.88,4.27039 19.55973,12.20372 26.70589,19.83819 20.49817,21.89887 22.88859,50.5857 6.3759,76.51596 -13.13895,20.63238 -37.00514,33.69811 -70.51238,38.60256 -14.2358,2.08369 -20.05386,5.14305 -29.84415,15.69317 -11.67439,12.58048 -12.23523,13.02822 -17.56448,14.02192 -6.97025,1.29971 -15.84698,-1.20915 -21.47402,-6.06924 z M 378.52,882.02666 c -4.39414,-5.3484 -4.78204,-15.51708 -0.91051,-23.869 5.30579,-11.44603 12.71948,-15.34181 35.1792,-18.48613 18.92252,-2.64911 27.09602,-5.36354 32.89782,-10.92541 9.87847,-9.46995 6.18265,-22.28854 -6.84933,-23.75613 -1.91886,-0.21609 -7.22049,0.36963 -11.78137,1.3016 -14.78789,3.02176 -18.68053,1.76755 -20.71837,-6.67547 -1.56078,-6.46648 -0.44057,-12.00798 3.40326,-16.83542 6.46036,-8.11351 24.49919,-14.47331 38.50901,-13.57682 6.73649,0.43107 7.81242,0.80828 16.32555,5.72333 11.07413,6.39366 15.83094,11.2169 20.50338,20.78978 5.85217,11.98987 5.33452,24.15346 -1.61859,38.03344 -9.06233,18.0905 -28.88333,30.51894 -53.24972,33.3894 -14.77313,1.74033 -18.45437,3.378 -28.19384,12.54253 -2.92797,2.75513 -6.50289,5.55249 -7.94425,6.21633 -4.44168,2.04575 -12.29713,0.09 -15.55224,-3.87203 z"
       id="path4150"
       inkscape:export-filename="/Users/ol/Desktop/unanswered_messages.png"
       inkscape:export-xdpi="97"
       inkscape:export-ydpi="97" />
  </g>
</svg>
